# xmcd
#
# Track frame offsets:
#   150
#   14381
#   31334
#   47718
#   65846
#   83098
#   95486
#   108548
#   129791
#
# Disc length: 1981 seconds
#
# Revision: 0
# Processed by: cddbd v1.5.2PL0 Copyright (c) Steve Scherf et al.
# Submitted via: Click'N Design 3D 5.1
#
DISCID=6f07bb09
DTITLE=Senior Video - Emily's Video Songs
DYEAR=2010
DGENRE=Country
TTITLE0=My Little Girl
TTITLE1=Let Them Be Little
TTITLE2=Find Your Wings
TTITLE3=Something That We Do
TTITLE4=Live What I Believe
TTITLE5=You've Got A Friend In Me
TTITLE6=You're My Best Friend
TTITLE7=Friends
TTITLE8=My Wish
EXTD=
EXTT0=
EXTT1=
EXTT2=
EXTT3=
EXTT4=
EXTT5=
EXTT6=
EXTT7=
EXTT8=
PLAYORDER=
